<svg width="162" height="68" viewBox="0 0 162 68" fill="none" xmlns="http://www.w3.org/2000/svg">
<path d="M78.2652 26.4983V12.5677H81.6876C82.3067 12.5677 82.8628 12.625 83.3558 12.7397C83.8603 12.8544 84.2903 13.0493 84.6457 13.3244C85.0126 13.5881 85.2935 13.9493 85.4884 14.4079C85.6833 14.8665 85.7808 15.4456 85.7808 16.1449C85.7808 16.7068 85.7005 17.1883 85.54 17.5896C85.391 17.9909 85.1674 18.3119 84.8693 18.5527C84.5712 18.782 84.1986 18.9368 83.7514 19.017C84.3017 19.1088 84.7546 19.3037 85.1101 19.6018C85.4769 19.8884 85.7464 20.2668 85.9184 20.7369C86.1018 21.2069 86.1935 21.7745 86.1935 22.4395C86.1935 23.1045 86.1076 23.695 85.9356 24.2109C85.7751 24.7154 85.5285 25.1396 85.196 25.4836C84.875 25.8161 84.468 26.0683 83.975 26.2403C83.4934 26.4123 82.9259 26.4983 82.2724 26.4983H78.2652ZM80.8105 24.7097H81.7736C82.5418 24.7097 83.0635 24.5262 83.3386 24.1593C83.6138 23.7809 83.7514 23.2019 83.7514 22.4223C83.7514 21.8605 83.6826 21.4076 83.545 21.0636C83.4189 20.7082 83.2011 20.4445 82.8915 20.2725C82.5934 20.1005 82.1921 20.0145 81.6876 20.0145H80.8105V24.7097ZM80.8105 18.2603H81.6704C82.1749 18.2603 82.5647 18.1858 82.8399 18.0367C83.1151 17.8877 83.3042 17.6584 83.4074 17.3488C83.5221 17.0393 83.5794 16.6494 83.5794 16.1793C83.5794 15.6863 83.4934 15.308 83.3214 15.0443C83.1609 14.7691 82.9144 14.5856 82.5819 14.4939C82.2494 14.3907 81.8252 14.3391 81.3093 14.3391H80.8105V18.2603ZM87.4436 26.4983L90.2297 12.5677H92.9471L95.7332 26.4983H93.377L92.8267 23.2822H90.4017L89.8342 26.4983H87.4436ZM90.6597 21.6656H92.5515L91.6056 15.8182L90.6597 21.6656ZM97.5125 26.4983V12.5677H99.9547V24.6753H102.053V12.5677H104.478V24.6753H106.473V12.5677H108.915V26.4983H97.5125Z" fill="#EE5D5F"/>
<path d="M114.607 26.4983L117.393 12.5677H120.11L122.896 26.4983H120.54L119.99 23.2822H117.565L116.997 26.4983H114.607ZM117.823 21.6656H119.715L118.769 15.8182L117.823 21.6656ZM124.676 26.4983V12.5677H127.204V18.3979H130.059V12.5677H132.587V26.4983H130.059V20.2037H127.204V26.4983H124.676ZM135.097 26.4983V12.5677H141.047V14.4423H137.625V26.4983H135.097ZM142.662 26.4983V12.5677H148.509V14.3563H145.207V18.3635H147.804V20.1349H145.207V24.744H148.543V26.4983H142.662ZM149.399 26.4983V24.6753C149.72 24.6867 149.989 24.6695 150.207 24.6237C150.436 24.5663 150.626 24.4459 150.775 24.2625C150.935 24.079 151.067 23.7981 151.17 23.4198C151.273 23.03 151.359 22.5083 151.428 21.8547C151.497 21.2012 151.571 20.37 151.652 19.361L152.099 12.5677H158.875V26.4983H156.347V14.4767H154.352L154.042 19.6706C153.973 20.691 153.893 21.591 153.802 22.3707C153.721 23.1503 153.589 23.8153 153.406 24.3657C153.234 24.9046 152.987 25.3403 152.666 25.6727C152.345 26.0052 151.921 26.2403 151.394 26.3779C150.866 26.504 150.201 26.5441 149.399 26.4983Z" fill="#EE5D5F"/>
<path d="M77.3881 43.5216L80.1914 36.1264L77.4741 29.591H79.8474L81.6532 33.9078L83.2355 29.591H85.4368L82.7539 36.6079L85.6432 43.5216H83.2698L81.2921 38.8437L79.5722 43.5216H77.3881ZM87.1914 43.5216V29.591H91.2846C92.1216 29.591 92.7981 29.7458 93.314 30.0554C93.8414 30.365 94.2255 30.8178 94.4663 31.414C94.7185 31.9988 94.8446 32.7096 94.8446 33.5466C94.8446 34.4524 94.6899 35.1862 94.3803 35.748C94.0707 36.2983 93.635 36.6996 93.0732 36.9519C92.5229 37.2041 91.8694 37.3302 91.1126 37.3302H89.7368V43.5216H87.1914ZM89.7368 35.5416H90.6999C91.1585 35.5416 91.5139 35.4786 91.7662 35.3524C92.0299 35.2148 92.2076 35.0027 92.2993 34.7161C92.4025 34.418 92.4541 34.0224 92.4541 33.5294C92.4541 33.0249 92.414 32.6179 92.3337 32.3084C92.2649 31.9873 92.1044 31.7523 91.8522 31.6032C91.6114 31.4542 91.2273 31.3796 90.6999 31.3796H89.7368V35.5416ZM95.0935 43.5216L97.8796 29.591H100.597L103.383 43.5216H101.027L100.477 40.3055H98.0516L97.484 43.5216H95.0935ZM98.3095 38.6889H100.201L99.2554 32.8415L98.3095 38.6889ZM105.162 43.5216V29.591H107.69V35.4212H110.545V29.591H113.074V43.5216H110.545V37.227H107.69V43.5216H105.162ZM115.583 43.5216V29.591H117.664V38.3793L121.482 29.591H123.185V43.5216H121.087V34.5957L117.252 43.5216H115.583ZM126.943 43.5216V31.4656H124.725V29.591H131.673V31.4656H129.489V43.5216H126.943ZM133.166 43.5216V29.591H139.014V31.3796H135.712V35.3868H138.309V37.1582H135.712V41.7674H139.048V43.5216H133.166ZM139.904 43.5216V41.6986C140.225 41.71 140.494 41.6928 140.712 41.647C140.941 41.5896 141.13 41.4693 141.279 41.2858C141.44 41.1024 141.572 40.8215 141.675 40.4431C141.778 40.0533 141.864 39.5316 141.933 38.8781C142.002 38.2245 142.076 37.3933 142.156 36.3843L142.604 29.591H149.38V43.5216H146.852V31.5H144.857L144.547 36.6939C144.478 37.7143 144.398 38.6144 144.306 39.394C144.226 40.1737 144.094 40.8387 143.911 41.389C143.739 41.9279 143.492 42.3636 143.171 42.6961C142.85 43.0286 142.426 43.2636 141.899 43.4012C141.371 43.5273 140.706 43.5674 139.904 43.5216ZM151.91 43.5216V29.591H154.438V35.4384H155.057C155.997 35.4384 156.783 35.5703 157.413 35.834C158.044 36.0862 158.52 36.5104 158.841 37.1066C159.162 37.6914 159.322 38.4825 159.322 39.48C159.322 40.2597 159.225 40.9132 159.03 41.4406C158.835 41.9565 158.543 42.3693 158.153 42.6789C157.774 42.9884 157.316 43.2063 156.777 43.3324C156.238 43.4585 155.63 43.5216 154.954 43.5216H151.91ZM154.438 41.8018H154.954C155.447 41.8018 155.837 41.733 156.123 41.5954C156.422 41.4578 156.639 41.217 156.777 40.8731C156.915 40.5176 156.983 40.0361 156.983 39.4284C156.972 38.7061 156.823 38.1557 156.536 37.7774C156.261 37.399 155.722 37.2098 154.92 37.2098H154.438V41.8018Z" fill="#EE5D5F"/>
<path d="M78.308 53.8535V48.3093H80.69V48.8706H79.0815V50.616H79.2526C79.6541 50.616 79.985 50.6639 80.2451 50.7597C80.5097 50.851 80.7059 51.013 80.8337 51.2457C80.966 51.4784 81.0322 51.807 81.0322 52.2313C81.0322 52.5188 80.998 52.7652 80.9295 52.9705C80.8611 53.1713 80.7538 53.3379 80.6078 53.4702C80.4664 53.6025 80.2861 53.7006 80.0671 53.7645C79.8526 53.8238 79.5948 53.8535 79.2936 53.8535H78.308ZM79.0815 53.2991H79.3005C79.5286 53.2991 79.7157 53.274 79.8618 53.2238C80.0123 53.169 80.1219 53.0641 80.1903 52.9089C80.2633 52.7538 80.2998 52.5256 80.2998 52.2245C80.2998 51.8457 80.2268 51.5765 80.0808 51.4168C79.9393 51.2571 79.6724 51.1772 79.28 51.1772H79.0815V53.2991ZM81.5465 53.8535V53.2786C81.6469 53.2831 81.7382 53.2763 81.8203 53.258C81.907 53.2398 81.9823 53.1964 82.0462 53.128C82.1146 53.0595 82.1739 52.9523 82.2241 52.8063C82.2743 52.6603 82.3177 52.4618 82.3542 52.2108C82.3907 51.9598 82.4226 51.6427 82.45 51.2594L82.6348 48.3093H85.0715V53.8535H84.298V48.8843H83.2987L83.1687 51.2594C83.1459 51.6153 83.1162 51.937 83.0797 52.2245C83.0432 52.5074 82.9884 52.7561 82.9154 52.9705C82.847 53.1804 82.7534 53.3561 82.6348 53.4976C82.5207 53.6345 82.3747 53.7326 82.1967 53.7919C82.0188 53.8512 81.802 53.8718 81.5465 53.8535ZM85.9138 53.8535L87.091 48.3093H87.8371L89.0212 53.8535H88.2889L88.0356 52.4572H86.9062L86.6393 53.8535H85.9138ZM87.0089 51.9028H87.9329L87.4675 49.4045L87.0089 51.9028ZM89.8576 53.8535V48.3093H91.9999V48.8843H90.631V53.8535H89.8576ZM94.2219 53.9151C93.8477 53.9151 93.5488 53.8421 93.3252 53.6961C93.1016 53.5501 92.9419 53.3424 92.8461 53.0732C92.7503 52.7994 92.7024 52.48 92.7024 52.115V50.0137C92.7024 49.6486 92.7503 49.336 92.8461 49.0759C92.9465 48.8113 93.1062 48.6105 93.3252 48.4736C93.5488 48.3322 93.8477 48.2614 94.2219 48.2614C94.596 48.2614 94.8926 48.3322 95.1117 48.4736C95.3307 48.6151 95.4881 48.8158 95.584 49.0759C95.6843 49.336 95.7345 49.6486 95.7345 50.0137V52.1218C95.7345 52.4823 95.6843 52.7971 95.584 53.0664C95.4881 53.3356 95.3307 53.5455 95.1117 53.6961C94.8926 53.8421 94.596 53.9151 94.2219 53.9151ZM94.2219 53.3059C94.4272 53.3059 94.5824 53.2649 94.6873 53.1827C94.7923 53.096 94.863 52.9774 94.8995 52.8268C94.936 52.6717 94.9543 52.4914 94.9543 52.2861V49.8562C94.9543 49.6509 94.936 49.4752 94.8995 49.3292C94.863 49.1786 94.7923 49.0645 94.6873 48.987C94.5824 48.9048 94.4272 48.8638 94.2219 48.8638C94.0165 48.8638 93.8591 48.9048 93.7496 48.987C93.6446 49.0645 93.5739 49.1786 93.5374 49.3292C93.5009 49.4752 93.4827 49.6509 93.4827 49.8562V52.2861C93.4827 52.4914 93.5009 52.6717 93.5374 52.8268C93.5739 52.9774 93.6446 53.096 93.7496 53.1827C93.8591 53.2649 94.0165 53.3059 94.2219 53.3059ZM97.3576 53.8535V48.8843H96.4199V48.3093H99.0414V48.8843H98.1311V53.8535H97.3576ZM99.7962 53.8535V48.3093H101.069C101.32 48.3093 101.537 48.3367 101.72 48.3915C101.907 48.4462 102.062 48.5306 102.185 48.6447C102.308 48.7588 102.399 48.9048 102.459 49.0828C102.518 49.2562 102.548 49.4615 102.548 49.6988C102.548 49.927 102.518 50.1255 102.459 50.2943C102.404 50.4586 102.317 50.5886 102.199 50.6844C102.085 50.7803 101.936 50.8419 101.754 50.8692C101.977 50.9194 102.158 51.0061 102.294 51.1293C102.431 51.248 102.532 51.4031 102.596 51.5948C102.664 51.7819 102.698 52.0077 102.698 52.2724C102.698 52.5097 102.671 52.7264 102.616 52.9226C102.561 53.1188 102.475 53.2854 102.356 53.4223C102.242 53.5592 102.094 53.6664 101.911 53.744C101.733 53.817 101.521 53.8535 101.275 53.8535H99.7962ZM100.57 53.2991H101.09C101.437 53.2991 101.667 53.2192 101.781 53.0595C101.9 52.8953 101.959 52.6329 101.959 52.2724C101.959 52.0397 101.927 51.8457 101.863 51.6906C101.804 51.5309 101.706 51.4122 101.569 51.3347C101.437 51.2525 101.256 51.2115 101.028 51.2115H100.57V53.2991ZM100.57 50.6228H101.028C101.247 50.6228 101.418 50.5932 101.542 50.5338C101.665 50.47 101.751 50.3696 101.802 50.2327C101.852 50.0958 101.877 49.9178 101.877 49.6988C101.877 49.4433 101.838 49.2585 101.761 49.1444C101.683 49.0303 101.562 48.9596 101.398 48.9322C101.234 48.9003 101.019 48.8843 100.754 48.8843H100.57V50.6228ZM105.076 53.9151C104.702 53.9151 104.403 53.8421 104.18 53.6961C103.956 53.5501 103.796 53.3424 103.7 53.0732C103.605 52.7994 103.557 52.48 103.557 52.115V50.0137C103.557 49.6486 103.605 49.336 103.7 49.0759C103.801 48.8113 103.961 48.6105 104.18 48.4736C104.403 48.3322 104.702 48.2614 105.076 48.2614C105.45 48.2614 105.747 48.3322 105.966 48.4736C106.185 48.6151 106.343 48.8158 106.438 49.0759C106.539 49.336 106.589 49.6486 106.589 50.0137V52.1218C106.589 52.4823 106.539 52.7971 106.438 53.0664C106.343 53.3356 106.185 53.5455 105.966 53.6961C105.747 53.8421 105.45 53.9151 105.076 53.9151ZM105.076 53.3059C105.282 53.3059 105.437 53.2649 105.542 53.1827C105.647 53.096 105.717 52.9774 105.754 52.8268C105.79 52.6717 105.809 52.4914 105.809 52.2861V49.8562C105.809 49.6509 105.79 49.4752 105.754 49.3292C105.717 49.1786 105.647 49.0645 105.542 48.987C105.437 48.9048 105.282 48.8638 105.076 48.8638C104.871 48.8638 104.713 48.9048 104.604 48.987C104.499 49.0645 104.428 49.1786 104.392 49.3292C104.355 49.4752 104.337 49.6509 104.337 49.8562V52.2861C104.337 52.4914 104.355 52.6717 104.392 52.8268C104.428 52.9774 104.499 53.096 104.604 53.1827C104.713 53.2649 104.871 53.3059 105.076 53.3059ZM107.623 53.8535V48.3093H108.999C109.332 48.3093 109.596 48.3709 109.793 48.4941C109.993 48.6128 110.139 48.7862 110.231 49.0143C110.322 49.2425 110.368 49.5186 110.368 49.8425C110.368 50.1346 110.315 50.3878 110.21 50.6023C110.11 50.8168 109.959 50.9833 109.758 51.102C109.558 51.216 109.307 51.2731 109.006 51.2731H108.396V53.8535H107.623ZM108.396 50.7187H108.752C108.976 50.7187 109.152 50.6936 109.279 50.6434C109.407 50.5932 109.498 50.5065 109.553 50.3833C109.608 50.2555 109.635 50.0775 109.635 49.8494C109.635 49.5847 109.615 49.3817 109.574 49.2402C109.537 49.0988 109.457 49.0006 109.334 48.9459C109.211 48.8911 109.019 48.8638 108.759 48.8638H108.396V50.7187ZM111.185 53.8535V48.3093H111.87V52.1492L113.492 48.3093H114.046V53.8535H113.369V49.9521L111.76 53.8535H111.185ZM115.745 53.8535V48.8843H114.807V48.3093H117.428V48.8843H116.518V53.8535H115.745ZM118.183 53.8535V48.3093H120.332V48.8843H118.957V50.7187H120.072V51.2662H118.957V53.2991H120.346V53.8535H118.183ZM120.827 53.8535V53.2786C120.927 53.2831 121.018 53.2763 121.101 53.258C121.187 53.2398 121.263 53.1964 121.326 53.128C121.395 53.0595 121.454 52.9523 121.504 52.8063C121.555 52.6603 121.598 52.4618 121.634 52.2108C121.671 51.9598 121.703 51.6427 121.73 51.2594L121.915 48.3093H124.352V53.8535H123.578V48.8843H122.579L122.449 51.2594C122.426 51.6153 122.396 51.937 122.36 52.2245C122.323 52.5074 122.269 52.7561 122.196 52.9705C122.127 53.1804 122.034 53.3561 121.915 53.4976C121.801 53.6345 121.655 53.7326 121.477 53.7919C121.299 53.8512 121.082 53.8718 120.827 53.8535ZM125.495 53.8535V48.3093H126.269V50.616H126.488C126.889 50.616 127.22 50.6639 127.48 50.7597C127.74 50.851 127.934 51.013 128.062 51.2457C128.194 51.4784 128.26 51.807 128.26 52.2313C128.26 52.5188 128.226 52.7652 128.158 52.9705C128.089 53.1713 127.982 53.3379 127.836 53.4702C127.695 53.6025 127.514 53.7006 127.295 53.7645C127.081 53.8238 126.823 53.8535 126.522 53.8535H125.495ZM126.269 53.2991H126.522C126.755 53.2991 126.944 53.274 127.09 53.2238C127.241 53.169 127.352 53.0641 127.425 52.9089C127.498 52.7538 127.535 52.5256 127.535 52.2245C127.535 51.8457 127.462 51.5765 127.316 51.4168C127.17 51.2571 126.901 51.1772 126.508 51.1772H126.269V53.2991ZM129.151 53.8535V48.3093H129.925V50.705H131.348V48.3093H132.122V53.8535H131.348V51.2594H129.925V53.8535H129.151ZM133.262 53.8535V48.3093H134.035V50.616H134.254C134.656 50.616 134.987 50.6639 135.247 50.7597C135.507 50.851 135.701 51.013 135.828 51.2457C135.961 51.4784 136.027 51.807 136.027 52.2313C136.027 52.5188 135.993 52.7652 135.924 52.9705C135.856 53.1713 135.749 53.3379 135.603 53.4702C135.461 53.6025 135.281 53.7006 135.062 53.7645C134.847 53.8238 134.59 53.8535 134.288 53.8535H133.262ZM134.035 53.2991H134.288C134.521 53.2991 134.71 53.274 134.857 53.2238C135.007 53.169 135.119 53.0641 135.192 52.9089C135.265 52.7538 135.301 52.5256 135.301 52.2245C135.301 51.8457 135.228 51.5765 135.082 51.4168C134.936 51.2571 134.667 51.1772 134.275 51.1772H134.035V53.2991ZM136.602 53.8535V48.3093H137.375V53.8535H136.602ZM138.515 53.8535V48.3093H139.2V52.1492L140.822 48.3093H141.376V53.8535H140.699V49.9521L139.09 53.8535H138.515ZM140.014 47.8781C139.686 47.8781 139.453 47.7891 139.316 47.6112C139.184 47.4332 139.118 47.2119 139.118 46.9473H139.542C139.546 47.1115 139.583 47.2393 139.651 47.3306C139.724 47.4173 139.845 47.4606 140.014 47.4606C140.188 47.4606 140.309 47.415 140.377 47.3237C140.45 47.2324 140.486 47.107 140.486 46.9473H140.918C140.918 47.2119 140.849 47.4332 140.712 47.6112C140.58 47.7891 140.347 47.8781 140.014 47.8781ZM145.794 54.0999V53.169C145.771 53.1736 145.735 53.1782 145.685 53.1827C145.634 53.1873 145.591 53.1896 145.555 53.1896C145.276 53.1896 145.039 53.1462 144.843 53.0595C144.651 52.9728 144.505 52.8222 144.405 52.6078C144.304 52.3933 144.254 52.099 144.254 51.7248V50.3422C144.254 49.9726 144.302 49.6805 144.398 49.4661C144.494 49.2516 144.63 49.0988 144.808 49.0075C144.991 48.9117 145.208 48.8638 145.459 48.8638C145.523 48.8638 145.586 48.866 145.65 48.8706C145.714 48.8706 145.762 48.8729 145.794 48.8774V47.8097H146.568V48.8774C146.613 48.8729 146.67 48.8706 146.739 48.8706C146.807 48.866 146.866 48.8638 146.917 48.8638C147.177 48.8638 147.396 48.9117 147.574 49.0075C147.756 49.0988 147.893 49.2539 147.984 49.4729C148.08 49.6874 148.128 49.9771 148.128 50.3422V51.7248C148.128 52.0944 148.08 52.3865 147.984 52.6009C147.889 52.8154 147.756 52.9683 147.587 53.0595C147.419 53.1462 147.227 53.1896 147.012 53.1896C146.939 53.1896 146.866 53.1873 146.793 53.1827C146.72 53.1782 146.645 53.1736 146.568 53.169V54.0999H145.794ZM145.602 52.7241C145.639 52.7241 145.675 52.7241 145.712 52.7241C145.748 52.7196 145.776 52.715 145.794 52.7104V49.3429C145.753 49.3383 145.712 49.336 145.671 49.336C145.63 49.3315 145.591 49.3292 145.555 49.3292C145.404 49.3292 145.285 49.3589 145.199 49.4182C145.112 49.4775 145.05 49.5802 145.014 49.7262C144.977 49.8722 144.959 50.0775 144.959 50.3422V51.7248C144.959 51.9895 144.975 52.1948 145.007 52.3408C145.039 52.4869 145.1 52.5872 145.192 52.642C145.283 52.6968 145.42 52.7241 145.602 52.7241ZM146.821 52.7241C146.985 52.7241 147.111 52.6968 147.197 52.642C147.284 52.5872 147.343 52.4869 147.375 52.3408C147.407 52.1948 147.423 51.9895 147.423 51.7248V50.3422C147.423 50.0775 147.407 49.8722 147.375 49.7262C147.343 49.5802 147.284 49.4775 147.197 49.4182C147.111 49.3589 146.98 49.3292 146.807 49.3292C146.766 49.3292 146.725 49.3315 146.684 49.336C146.643 49.336 146.604 49.3383 146.568 49.3429V52.7104C146.599 52.715 146.638 52.7196 146.684 52.7241C146.73 52.7241 146.775 52.7241 146.821 52.7241ZM150.579 53.9151C150.205 53.9151 149.906 53.8421 149.683 53.6961C149.459 53.5501 149.299 53.3424 149.203 53.0732C149.108 52.7994 149.06 52.48 149.06 52.115V50.0137C149.06 49.6486 149.108 49.336 149.203 49.0759C149.304 48.8113 149.464 48.6105 149.683 48.4736C149.906 48.3322 150.205 48.2614 150.579 48.2614C150.953 48.2614 151.25 48.3322 151.469 48.4736C151.688 48.6151 151.845 48.8158 151.941 49.0759C152.042 49.336 152.092 49.6486 152.092 50.0137V52.1218C152.092 52.4823 152.042 52.7971 151.941 53.0664C151.845 53.3356 151.688 53.5455 151.469 53.6961C151.25 53.8421 150.953 53.9151 150.579 53.9151ZM150.579 53.3059C150.785 53.3059 150.94 53.2649 151.045 53.1827C151.15 53.096 151.22 52.9774 151.257 52.8268C151.293 52.6717 151.312 52.4914 151.312 52.2861V49.8562C151.312 49.6509 151.293 49.4752 151.257 49.3292C151.22 49.1786 151.15 49.0645 151.045 48.987C150.94 48.9048 150.785 48.8638 150.579 48.8638C150.374 48.8638 150.216 48.9048 150.107 48.987C150.002 49.0645 149.931 49.1786 149.895 49.3292C149.858 49.4752 149.84 49.6509 149.84 49.8562V52.2861C149.84 52.4914 149.858 52.6717 149.895 52.8268C149.931 52.9774 150.002 53.096 150.107 53.1827C150.216 53.2649 150.374 53.3059 150.579 53.3059ZM153.126 53.8535V48.3093H153.899V50.705H155.323V48.3093H156.096V53.8535H155.323V51.2594H153.899V53.8535H153.126ZM156.88 54.8597V53.2991H157.134C157.211 53.2352 157.287 53.1576 157.36 53.0664C157.437 52.9751 157.508 52.8565 157.572 52.7104C157.64 52.5599 157.702 52.3682 157.757 52.1355C157.811 51.8982 157.859 51.6016 157.9 51.2457C157.946 50.8898 157.98 50.4586 158.003 49.9521L158.092 48.3093H160.412V53.2991H160.946V54.8597H160.351L160.289 53.8535H157.538L157.476 54.8597H156.88ZM157.852 53.2991H159.646V48.8843H158.749L158.694 50.1369C158.676 50.6297 158.646 51.0449 158.605 51.3826C158.569 51.7157 158.523 51.9918 158.468 52.2108C158.418 52.4253 158.359 52.6009 158.29 52.7378C158.227 52.8702 158.156 52.9774 158.078 53.0595C158.005 53.1417 157.93 53.2215 157.852 53.2991Z" fill="#A2A9A5"/>
<g clip-path="url(#clip0_612_24705)">
<path d="M17.6534 1.0833C20.1226 -0.246262 21.96 -0.187417 22.8841 0.630466L22.9622 0.701909C23.3403 1.06858 23.5429 1.51886 23.5315 2.03514C23.5202 2.53175 23.3117 3.00508 23.071 3.42334C22.8249 3.85066 22.4916 4.30963 22.1433 4.78075C21.7875 5.26203 21.4035 5.77068 21.0211 6.33601C19.5119 8.56742 18.0708 11.5858 19.2625 15.9973C19.3621 16.3671 19.15 16.7501 18.7888 16.8524C18.4274 16.9546 18.0524 16.7375 17.9524 16.3677C16.612 11.4061 18.2718 7.95851 19.9044 5.54464C20.3074 4.94892 20.7125 4.41057 21.0596 3.94102C21.4143 3.46126 21.7005 3.06508 21.9004 2.7177C22.1054 2.36159 22.1699 2.1391 22.173 2.00327C22.1745 1.93173 22.1634 1.85031 22.051 1.73398L21.996 1.68123C21.7358 1.45095 20.6214 1.05707 18.2865 2.31432C16.0051 3.54279 12.7503 6.26754 8.48891 11.7723C2.53481 20.5578 1.45157 28.6098 1.94363 34.4538C2.19031 37.383 2.83303 39.7606 3.46042 41.3991C3.77467 42.2198 4.08109 42.8453 4.32543 43.2566C4.37748 43.3442 4.4257 43.4197 4.46832 43.4831C4.53648 43.416 4.61603 43.3251 4.70463 43.2072C4.98959 42.8279 5.31852 42.2305 5.64658 41.3991C6.29946 39.7443 6.9155 37.2502 7.19964 33.9427C7.29825 30.8906 7.71246 27.5609 8.54277 23.9505C8.62871 23.5769 8.99432 23.3449 9.35941 23.4329C9.72414 23.521 9.9506 23.8947 9.86501 24.2682C9.07795 27.6903 8.67597 30.843 8.56585 33.7294L8.55595 34.0086C8.2901 42.3558 10.4619 48.4795 12.7766 52.4794C13.9356 54.482 15.1303 55.9515 16.0707 56.8989C16.498 57.3294 16.866 57.6451 17.1478 57.853C17.1567 57.6568 17.1556 57.4117 17.1412 57.1177C17.0943 56.1582 16.9217 54.8332 16.6829 53.3455C16.2092 50.3943 15.4954 46.9178 15.0529 44.5822C13.7451 40.7546 13.0806 37.3738 12.87 35.3199C12.8309 34.9382 13.1016 34.5962 13.4745 34.556C13.8475 34.5159 14.1816 34.7931 14.2208 35.1748C14.4201 37.1188 15.0626 40.4131 16.3498 44.1689L16.4938 44.5822C18.005 48.8719 20.339 53.6754 23.7656 57.7266L23.9569 57.9486C27.991 62.5819 33.533 64.7401 38.0751 65.5908C40.3784 66.022 42.3987 66.1126 43.796 66.0272C44.2332 66.0003 44.5974 65.9564 44.8831 65.9052C44.8301 65.8674 44.7728 65.8289 44.7127 65.7886C44.2567 65.483 43.6477 65.1401 42.9695 64.7917C41.6218 64.0997 40.0606 63.4146 39.0302 62.9947C29.6841 59.6786 23.9829 52.3113 21.8663 45.5241L21.7685 45.201L21.7597 45.1669C21.673 44.81 21.8747 44.4427 22.2224 44.3349C22.5701 44.2272 22.9365 44.4185 23.0578 44.7646L23.0688 44.7987L23.1611 45.1032C25.1593 51.5098 30.5717 58.5283 39.4908 61.6867L39.8227 61.8021C41.4879 62.3673 43.2844 62.7928 45.2139 63.0331L45.5106 63.0694C51.7397 63.794 56.7766 62.7782 60.3664 61.2119C62.1914 60.4155 63.6342 59.4794 64.6695 58.5652C65.1478 58.1428 65.5288 57.7345 65.8191 57.3562C62.0269 58.1198 58.864 58.2417 56.1227 58.0673L55.8248 58.0464C52.4821 57.8055 49.743 57.1286 47.366 56.7143C44.9668 56.2962 42.8944 56.1343 40.68 56.8077C40.3205 56.9169 39.9417 56.7073 39.8348 56.3395C39.7281 55.9715 39.9335 55.5839 40.2931 55.4745C42.8098 54.7092 45.1319 54.9148 47.5935 55.3437C50.0651 55.7743 52.6412 56.4187 55.8732 56.656C57.6096 56.529 59.6027 55.8248 61.3633 54.8513C63.1497 53.8636 64.5955 52.6546 65.2751 51.6133C65.1865 51.625 65.0853 51.6418 64.9706 51.6638C64.6223 51.731 64.2086 51.8362 63.7473 51.9617C62.8445 52.2075 61.7553 52.5337 60.7863 52.7333C60.298 52.834 59.8126 52.9094 59.3717 52.9245C58.9701 52.9384 58.5435 52.9046 58.1714 52.7498L58.0978 52.7179L58.067 52.7025C57.7488 52.5321 57.613 52.1336 57.7648 51.7957C57.9165 51.4577 58.3006 51.3043 58.6342 51.4407L58.666 51.455L58.71 51.4726C58.8255 51.5137 59.0229 51.5447 59.3266 51.5341C59.6615 51.5226 60.0646 51.4637 60.5181 51.3704C61.4325 51.1819 62.444 50.8781 63.3978 50.6186C63.8649 50.4914 64.3195 50.3745 64.72 50.2976C65.1048 50.2235 65.5079 50.1718 65.8455 50.2141C66.0164 50.2354 66.2329 50.2876 66.4269 50.4284C66.6462 50.5875 66.7887 50.8261 66.8248 51.1066C66.857 51.3557 66.7994 51.59 66.727 51.7792C66.6616 51.9506 66.5676 52.1272 66.4544 52.3079L66.405 52.386C65.55 53.6962 63.8859 55.0372 62.0096 56.0746C61.645 56.2762 61.2684 56.4684 60.8841 56.6483C62.7213 56.5087 64.7399 56.2094 66.982 55.6811C66.982 55.6811 68.0782 55.5806 67.7844 56.5626C67.4906 57.5444 66.6979 58.6113 65.5575 59.6182C64.4022 60.6384 62.8348 61.6468 60.8995 62.4913C57.0438 64.1738 51.6956 65.2244 45.1457 64.4257C45.2538 64.4932 45.3583 64.5588 45.4568 64.6247C45.7157 64.7983 45.9531 64.9761 46.1459 65.1523C46.3133 65.3051 46.5008 65.5046 46.6131 65.7447L46.6351 65.793L46.6493 65.8315C46.7194 66.0255 46.7177 66.2381 46.6405 66.4338C46.5672 66.6201 46.4439 66.7464 46.3482 66.824C46.1623 66.9745 45.9245 67.0691 45.7107 67.1351C45.2617 67.2735 44.6285 67.3684 43.8774 67.4143C42.3612 67.507 40.2304 67.4078 37.83 66.9581C33.1111 66.0744 27.2461 63.8162 22.9424 58.873L22.739 58.6356C20.6546 56.1711 18.9661 53.4507 17.6138 50.7373C17.7607 51.5478 17.9005 52.3523 18.0238 53.1202C18.2641 54.6177 18.4477 56.0065 18.4986 57.0484C18.5238 57.563 18.5185 58.0344 18.4579 58.4047C18.428 58.5873 18.3772 58.7912 18.281 58.973C18.189 59.1466 18.0187 59.3635 17.7336 59.4566L17.6754 59.4742C17.5011 59.5181 17.3466 59.4915 17.2599 59.4709C17.1618 59.4475 17.0683 59.4104 16.9873 59.3731C16.8248 59.298 16.6464 59.1896 16.4619 59.0598C16.0891 58.7972 15.6293 58.4046 15.1177 57.8893C14.0919 56.8558 12.8256 55.2919 11.6082 53.1883C9.80887 50.0792 8.1141 45.7875 7.46013 40.2835C7.28441 40.8876 7.09791 41.4331 6.90617 41.919C6.54983 42.8223 6.16624 43.5428 5.78177 44.0546C5.58976 44.3102 5.38496 44.5321 5.16736 44.6976C4.95474 44.8593 4.68536 45.0007 4.37709 45.0185L4.28037 45.0163C4.0562 44.9961 3.89403 44.8788 3.82423 44.824C3.73607 44.7545 3.65716 44.6728 3.59012 44.5943C3.45421 44.4348 3.31036 44.2239 3.16476 43.9788C2.87104 43.4843 2.53221 42.7838 2.19643 41.9069C1.5235 40.1496 0.848993 37.6412 0.590614 34.5736C0.0729595 28.4259 1.22693 20.0404 7.38319 10.9644L7.40847 10.9292L7.81185 10.4127C11.9468 5.15738 15.212 2.39798 17.6534 1.0833Z" fill="url(#paint0_linear_612_24705)"/>
<path d="M39.0291 28.4108C39.2747 29.2508 38.8865 31.3564 36.4814 29.666C37.1848 29.6806 38.6785 29.4503 39.0291 28.4108Z" fill="url(#paint1_linear_612_24705)"/>
<path fill-rule="evenodd" clip-rule="evenodd" d="M21.6883 23.0339C22.9234 14.5528 31.0769 7.75918 38.8555 11.9624C45.0783 15.3252 46.2153 23.9258 45.8855 27.3282C46.0504 27.3278 46.2296 27.3255 46.4207 27.3238C48.9165 27.2999 53.4738 27.2573 55.9787 29.8616C58.9753 32.9779 59.5322 36.0505 59.619 36.6938C59.9599 36.6747 60.1114 36.7014 60.1466 36.7213C59.6133 36.9483 58.4153 37.5531 57.889 38.1578C57.2311 38.9139 56.46 39.5036 56.2139 39.5801C56.0253 39.6388 54.0754 40.3362 52.966 40.7341C53.4628 40.9446 53.9007 41.1687 54.2608 41.4079C55.5666 40.8275 58.0579 39.6889 58.2407 39.479C58.4766 39.208 61.2087 36.4521 63.1549 35.9607C64.5483 35.6089 65.1839 35.7043 64.9706 36.8235C64.0188 41.8168 61.8165 43.3146 58.9738 45.6208C58.3149 46.1553 57.8612 46.5229 57.6318 46.6815C55.6485 48.0519 49.6002 49.2357 46.9637 49.9338C46.5803 50.035 46.2894 50.1116 46.124 50.1569C45.883 50.2229 44.8084 50.2651 44.1389 50.2097C43.8174 50.1831 43.5038 50.1569 43.2135 50.1569C42.3179 50.1568 33.1063 48.8522 28.6116 48.1994C33.0371 48.5897 42.4858 49.2772 44.8831 48.9072C47.8791 48.4445 54.8418 46.1404 55.394 45.944C55.9449 45.748 57.1907 44.9399 57.9813 44.4008C58.7721 43.8618 62.9771 41.1984 64.2032 37.6622C64.6421 36.3962 64.583 36.132 62.7108 36.8235C60.9863 37.4604 58.8441 39.6729 58.7001 39.8691C58.5563 40.0649 58.1822 40.2003 57.8813 40.2791C57.6476 40.3405 55.439 41.043 54.2718 41.4156C54.8537 41.8043 55.394 42.1948 55.621 42.6664C56.3741 44.2305 52.2754 44.0846 49.0964 44.4558C46.4891 44.7603 44.4398 44.2164 41.8958 43.9134C43.6025 43.8848 47.1965 44.1034 48.7715 43.6669C49.831 43.2573 54.8513 43.7758 54.5908 42.8332C54.3604 41.9992 52.7727 41.7182 51.7636 41.4156C48.3698 40.4015 44.7891 39.9369 41.2834 39.8197C41.2758 39.8148 40.9259 39.5902 40.7328 39.4647C39.0189 38.3492 36.4984 37.0598 33.3038 37.0598C30.4765 37.0598 27.4857 37.135 26.7113 37.5775C25.8489 38.0702 23.5804 38.243 22.7357 37.9105C22.825 37.9004 22.9324 37.8894 23.0523 37.8775C23.8644 37.7985 25.2911 37.6598 26.1353 37.1301C26.5644 36.8608 27.6515 36.5872 29.115 36.2069L28.5809 33.9361C25.872 33.1289 20.7003 29.8185 21.6883 23.0339ZM36.9738 12.9362C25.9434 10.3508 21.1263 23.7147 28.128 26.1477C26.6071 26.0454 24.4241 25.8775 23.1259 25.1299C21.3595 29.4466 29.585 36.3867 32.9191 32.1445C32.9725 32.5257 32.1527 34.2948 31.0506 34.1339C30.9502 34.4478 30.9517 35.3881 31.0506 35.9837C33.5063 35.6594 36.4243 35.8235 39.5611 37.4302C40.5032 36.8178 42.3138 34.6297 43.1289 33.3338C43.1781 33.9797 42.0609 36.6925 41.4384 38.1007C41.494 38.1393 41.5499 38.1777 41.6055 38.2172L41.7517 38.2402C44.2188 38.6116 47.7592 39.1446 50.6084 39.9373C51.495 38.8262 53.729 36.8979 55.5281 38.138C53.4701 38.5326 51.6619 39.3102 50.7238 39.9692C51.5303 40.1969 52.279 40.4463 52.9286 40.7188C53.9507 40.1474 55.7838 39.1013 55.9677 38.914C56.2072 38.6691 58.5769 36.7977 59.2947 36.7213C59.4079 36.7092 59.5081 36.7013 59.5959 36.696C59.2101 35.5156 55.7763 26.1441 44.6676 28.513C45.552 22.3954 42.8038 14.3029 36.9738 12.9362Z" fill="url(#paint2_linear_612_24705)"/>
</g>
<defs>
<linearGradient id="paint0_linear_612_24705" x1="9.00424" y1="6.75325" x2="67.5303" y2="64.7166" gradientUnits="userSpaceOnUse">
<stop stop-color="#F29460"/>
<stop offset="0.909979" stop-color="#EE595F"/>
</linearGradient>
<linearGradient id="paint1_linear_612_24705" x1="9.00424" y1="6.75325" x2="67.5303" y2="64.7166" gradientUnits="userSpaceOnUse">
<stop stop-color="#F29460"/>
<stop offset="0.909979" stop-color="#EE595F"/>
</linearGradient>
<linearGradient id="paint2_linear_612_24705" x1="9.00424" y1="6.75325" x2="67.5303" y2="64.7166" gradientUnits="userSpaceOnUse">
<stop stop-color="#F29460"/>
<stop offset="0.909979" stop-color="#EE595F"/>
</linearGradient>
<clipPath id="clip0_612_24705">
<rect width="67.5301" height="67.5301" fill="white" transform="translate(0.341872 -0.000169218)"/>
</clipPath>
</defs>
</svg>
